# xmcd
#
# Track frame offsets:
#	150
#	19487
#	43915
#	57062
#	89992
#	106347
#	124112
#	140750
#	172355
#	199315
#
# Disc length: 2947 seconds
#
# Revision: 2
# Processed by: cddbd v1.5.2PL0 Copyright (c) Steve Scherf et al.
# Submitted via: audiograbber 1.83.01
#
DISCID=a10b810a
DTITLE=Various Artist - Sweet Home Blue Chicago
DYEAR=1996
DGENRE=Blues
TTITLE0=Magic Sam - Sweet Home Chicago
TTITLE1=Johnny B. Moore - Rollin and Tumblin
TTITLE2=Junior Wells - Snatch It Back And Hold It
TTITLE3=Floyd McDaniel - West Side Baby
TTITLE4=Louis Myers - Top of the Harp
TTITLE5=Barkin' Bill - Sufferin' Mind
TTITLE6=Jimmy Johnson - I Need Some Easy Money
TTITLE7=Carey Bell - So Hard to Leave You Alone
TTITLE8=J.B. Hutto - Slidewinder
TTITLE9=Willie Kent - Memory of You
EXTD=
EXTT0=Magic Sam
EXTT1=Johnny B. Moore
EXTT2=Junior Wells
EXTT3=Floyd McDaniel
EXTT4=Louis Myers
EXTT5=Barkin' Bill
EXTT6=Jimmy Johnson
EXTT7=Carey Bell
EXTT8=J.B. Hutto
EXTT9=Willie Kent
PLAYORDER=
